<?xml version="1.0" encoding="utf-8"?><svg style="position: absolute; width: 0; height: 0; visibility: hidden;" xmlns="http://www.w3.org/2000/svg" xmlns:xlink="http://www.w3.org/1999/xlink"><symbol fill="none" viewBox="0 0 14 8" id="arrow-down" xmlns="http://www.w3.org/2000/svg"><path d="M1 1l6 6 6-6" stroke="currontColor" stroke-width="2" stroke-linecap="round" stroke-linejoin="round"/></symbol><symbol fill="none" viewBox="0 0 12 7" id="arrow-down-small" xmlns="http://www.w3.org/2000/svg"><path d="M1 .5l5 5 5-5" stroke="currentColor"/></symbol><symbol fill="none" viewBox="0 0 28 16" id="arrow-long" xmlns="http://www.w3.org/2000/svg"><path d="M1 7a1 1 0 000 2V7zm26.707 1.707a1 1 0 000-1.414L21.343.929a1 1 0 10-1.414 1.414L25.586 8l-5.657 5.657a1 1 0 001.414 1.414l6.364-6.364zM1 9h26V7H1v2z" fill="currentColor"/></symbol><symbol fill="none" viewBox="0 0 16 27" id="ic-arrowleft-big" xmlns="http://www.w3.org/2000/svg"><path fill-rule="evenodd" clip-rule="evenodd" d="M0 13.5a1 1 0 01.35-.76l14-12a1 1 0 011.3 1.52L2.538 13.5 15.65 24.74a1 1 0 01-1.302 1.52l-14-12A1 1 0 010 13.5z" fill="currentColor"/></symbol><symbol fill="none" viewBox="0 0 16 27" id="ic-arrowright-big" xmlns="http://www.w3.org/2000/svg"><path fill-rule="evenodd" clip-rule="evenodd" d="M16 13.5a1 1 0 01-.35.76l-14 12a1 1 0 01-1.3-1.52L13.462 13.5.35 2.26A1 1 0 111.651.74l14 12a1 1 0 01.349.76z" fill="currentColor"/></symbol><symbol fill="none" viewBox="0 0 18 18" id="ic-close" xmlns="http://www.w3.org/2000/svg"><path d="M16.714 1.286L1.285 16.714m0-15.428l15.429 15.428" stroke="currentColor" stroke-width="2" stroke-linecap="round" stroke-linejoin="round"/></symbol></svg>