<svg width="16" height="14" viewBox="0 0 16 14" fill="none" xmlns="http://www.w3.org/2000/svg">
<path d="M11.5553 0.777832H4.44423C2.31089 0.777832 0.888672 1.87587 0.888672 4.43796V9.56215C0.888672 12.1242 2.31089 13.2223 4.44423 13.2223H11.5553C13.6887 13.2223 15.1109 12.1242 15.1109 9.56215V4.43796C15.1109 1.87587 13.6887 0.777832 11.5553 0.777832ZM11.8896 5.23587L9.66378 7.06594C9.19445 7.45391 8.59712 7.64424 7.99978 7.64424C7.40245 7.64424 6.79801 7.45391 6.33578 7.06594L4.11001 5.23587C3.88245 5.04554 3.84689 4.69417 4.02467 4.45992C4.20956 4.22568 4.54378 4.18175 4.77134 4.37208L6.99712 6.20215C7.53756 6.64868 8.45489 6.64868 8.99534 6.20215L11.2211 4.37208C11.4487 4.18175 11.79 4.21835 11.9678 4.45992C12.1527 4.69417 12.1171 5.04554 11.8896 5.23587Z" fill="currentColor"/>
</svg>
