<svg width="103" height="67" viewBox="0 0 103 67" fill="none" xmlns="http://www.w3.org/2000/svg">
<path d="M99.0321 28.9297H102.922V37.8226H99.0321V28.9297ZM91.3669 40.4264H95.2567V26.326H91.3669V40.4264ZM83.8304 47.7197H87.7202V19.0327H83.8304V47.7197ZM76.666 53.3475H80.5558V13.6673H76.666V53.338V53.3475ZM68.996 43.6573H72.8858V23.095H68.996V43.6573ZM61.2043 59.2163H65.0941V6.65609H61.1921V59.2163H61.2043ZM53.5367 66.7523H57.4265V0H53.5367V66.7523ZM46.0003 56.4469H49.8901V10.3052H46.0003V56.4471V56.4469ZM38.2037 43.3436H42.0935V23.8946H38.2037V43.3436ZM30.6675 38.7072H34.5573V28.028H30.6675V38.7248V38.7072ZM23.131 44.4206H27.0208V22.3242H23.131V44.4277V44.4206ZM15.7161 55.117H19.6059V10.3709H15.7163V55.1248L15.7161 55.117ZM8.17986 48.281H12.0697V18.087H8.17986V48.2886V48.281ZM0.5 40.4264H4.3898V26.326H0.5V40.4264Z" fill="white"/>
</svg>
