<svg width="30" height="30" viewBox="0 0 30 30" fill="none" xmlns="http://www.w3.org/2000/svg">
<rect width="30" height="30" rx="15" fill="#3DBEFF"/>
<path d="M12.1348 21.8555C12.5098 21.8555 12.6723 21.6805 12.8848 21.4805C13.2098 21.168 17.3848 17.1055 17.3848 17.1055L14.8223 16.4805L12.4473 17.9805L12.1348 21.7305V21.8555Z" fill="white"/>
<path d="M12.3842 18.0291L18.4342 22.4916C19.1217 22.8666 19.6217 22.6791 19.7967 21.8541L22.2592 10.2541C22.5092 9.24156 21.8717 8.79156 21.2092 9.09156L6.7592 14.6666C5.7717 15.0666 5.7842 15.6166 6.5842 15.8541L10.2967 17.0166L18.8842 11.6041C19.2842 11.3541 19.6592 11.4916 19.3592 11.7666L12.3842 18.0291Z" fill="white"/>
</svg>
