<svg width="30" height="30" viewBox="0 0 30 30" fill="none" xmlns="http://www.w3.org/2000/svg">
<rect width="30" height="30" rx="15" fill="#FF0000"/>
<path d="M15.3972 19.9869L12.4907 19.9327C11.5497 19.9138 10.6063 19.9515 9.68371 19.7557C8.28024 19.4631 8.18081 18.0285 8.07677 16.8252C7.93341 15.1335 7.98891 13.411 8.25944 11.7334C8.41217 10.7921 9.0132 10.2304 9.94268 10.1693C13.0803 9.94746 16.2389 9.97375 19.3696 10.0772C19.7002 10.0867 20.0331 10.1386 20.3592 10.1976C21.9685 10.4855 22.0078 12.1112 22.1121 13.4797C22.2161 14.8623 22.1722 16.2521 21.9734 17.6253C21.8138 18.7623 21.5086 19.7158 20.2204 19.8078C18.6065 19.9282 17.0295 20.0251 15.411 19.9942C15.4111 19.9869 15.4018 19.9869 15.3972 19.9869ZM13.6885 17.1083C14.9047 16.3957 16.0978 15.695 17.3071 14.9872C16.0886 14.2746 14.8978 13.5738 13.6885 12.866V17.1083Z" fill="white"/>
</svg>
