<svg width="65" height="65" viewBox="0 0 65 65" fill="none" xmlns="http://www.w3.org/2000/svg">
                                    <path d="M47.1243 52.6858L34.5325 45.7175C39.2125 42.0391 40.4834 34.8102 40.4834 30.7572V22.3205C40.4834 16.734 33.0536 10.5121 25.5907 10.5121C18.1298 10.5121 10.5029 16.735 10.5029 22.3205V30.7572C10.5029 34.4425 12.0638 41.8982 16.7918 45.6855L3.87495 52.6856C3.87495 52.6856 0.5 54.1881 0.5 56.0613V61.1243C0.5 62.9875 2.01391 64.5 3.87495 64.5H47.1243C48.9872 64.5 50.5012 62.9875 50.5012 61.1243V56.0614C50.5012 54.0753 47.1242 52.6857 47.1242 52.6857L47.1243 52.6858ZM46.5013 60.504H4.50006V56.9316C4.78706 56.7228 5.18805 56.481 5.50405 56.3362C5.59798 56.2932 5.69198 56.2482 5.78098 56.1973L18.6988 49.1982C19.8768 48.5598 20.6577 47.376 20.7767 46.0433C20.8957 44.7106 20.3388 43.4049 19.2948 42.5677C15.9408 39.8814 14.5038 33.9312 14.5038 30.7573V22.3206C14.5038 19.4505 19.9198 14.5083 25.5917 14.5083C31.3686 14.5083 36.4845 19.3826 36.4845 22.3206V30.7573C36.4845 33.8873 35.5115 39.8634 32.0606 42.5757C31.5404 42.9849 31.1298 43.5166 30.8656 44.1231C30.6014 44.7296 30.4918 45.3921 30.5466 46.0513C30.6023 46.7101 30.8205 47.3449 31.1817 47.899C31.5429 48.453 32.0359 48.909 32.6166 49.2262L45.2084 56.1944C45.3194 56.2552 45.4604 56.3212 45.5774 56.3722C45.8724 56.4971 46.2353 56.7058 46.5013 56.8897V60.504ZM61.1222 42.7365L48.3433 35.7683C53.0232 32.09 54.4822 24.8611 54.4822 20.808V12.3713C54.4822 6.78481 46.8653 0.5 39.4025 0.5C34.5525 0.5 29.5937 3.13441 26.7077 6.50815C28.3537 6.60998 30.1687 6.61205 31.7366 7.11155C33.8435 5.47217 36.5096 4.49713 39.4025 4.49713C45.1794 4.49713 50.4822 9.43321 50.4822 12.3724V20.8091C50.4822 23.9389 49.3222 29.9151 45.8714 32.6274C45.3512 33.0366 44.9406 33.5683 44.6764 34.1748C44.4122 34.7813 44.3026 35.4438 44.3574 36.103C44.4131 36.7618 44.6313 37.3966 44.9925 37.9506C45.3537 38.5047 45.8467 38.9607 46.4273 39.2779L59.2062 46.246C59.3172 46.307 59.4582 46.3729 59.5752 46.4239C59.8702 46.5487 60.2331 46.7575 60.4991 46.9413V50.4948H52.4253C53.6442 51.4139 54.0132 52.7286 54.4863 54.4909H61.1232C62.9861 54.4909 64.5 52.9784 64.5 51.1152V46.1141C64.4991 44.1261 61.1221 42.7364 61.1221 42.7364L61.1222 42.7365Z" fill="white"></path>
                                </svg>