<svg width="84" height="84" viewBox="0 0 84 84" fill="none" xmlns="http://www.w3.org/2000/svg">
<path fill-rule="evenodd" clip-rule="evenodd" d="M1.55437 16.6011C1.29924 16.8564 1.09689 17.1594 0.958881 17.4929C0.820868 17.8264 0.74989 18.1838 0.75 18.5447C0.75011 18.9056 0.821307 19.263 0.959524 19.5964C1.09774 19.9298 1.30027 20.2327 1.55555 20.4878C1.81084 20.7429 2.11387 20.9453 2.44735 21.0833C2.78083 21.2213 3.13823 21.2923 3.49914 21.2922C3.86006 21.2921 4.21741 21.2209 4.55081 21.0826C4.88421 20.9444 5.18712 20.7419 5.44224 20.4866L7.38499 18.5415L17.0987 28.2552L9.32774 36.031C9.06532 36.2845 8.85601 36.5877 8.71202 36.9229C8.56803 37.2582 8.49225 37.6188 8.48909 37.9836C8.48593 38.3484 8.55547 38.7103 8.69363 39.0479C8.8318 39.3856 9.03583 39.6924 9.29382 39.9504C9.55181 40.2084 9.85861 40.4124 10.1963 40.5506C10.534 40.6888 10.8958 40.7583 11.2606 40.7551C11.6255 40.752 11.9861 40.6762 12.3213 40.5322C12.6565 40.3882 12.9598 40.1789 13.2132 39.9165L17.0987 36.031L22.0292 40.9615C24.2149 40.6168 26.438 40.5792 28.6341 40.8499L20.457 32.6727L33.1727 19.957L61.1241 47.9108L49.0686 59.9662C49.5833 62.66 49.6275 65.4226 49.1992 68.1315L50.135 69.0673C52.0262 70.9575 54.4274 72.2554 57.0448 72.8021C59.6622 73.3488 62.3822 73.1205 64.8719 72.1452L67.6221 74.8979C68.3039 75.5812 69.1539 76.0726 70.0863 76.3224C71.0187 76.5722 72.0005 76.5715 72.9326 76.3205L79.281 82.6689C79.7966 83.1844 80.4958 83.4741 81.2249 83.4741C81.954 83.4741 82.6533 83.1844 83.1689 82.6689C83.6844 82.1533 83.9741 81.454 83.9741 80.7249C83.9741 79.9958 83.6844 79.2966 83.1689 78.781L76.8181 72.4326C77.0684 71.5007 77.0684 70.5192 76.8182 69.5873C76.5681 68.6553 76.0765 67.8058 75.3931 67.1245L72.6429 64.3719C73.6184 61.8824 73.8471 59.1626 73.3008 56.5452C72.7546 53.9278 71.4571 51.5264 69.5673 49.635L36.531 16.5987L40.4189 12.7109C40.9341 12.1953 41.2235 11.4962 41.2232 10.7673C41.223 10.0384 40.9332 9.33943 40.4177 8.82418C39.9021 8.30893 39.203 8.01959 38.4741 8.01981C37.7452 8.02004 37.0462 8.3098 36.531 8.82537L28.76 16.5987L19.0462 6.88499L20.9866 4.94224C21.2419 4.68712 21.4444 4.38421 21.5826 4.05081C21.7209 3.71741 21.7921 3.36006 21.7922 2.99914C21.7923 2.63823 21.7213 2.28083 21.5833 1.94735C21.4453 1.61387 21.2429 1.31084 20.9878 1.05555C20.7327 0.800272 20.4298 0.597741 20.0964 0.459524C19.763 0.321307 19.4056 0.25011 19.0447 0.25C18.6838 0.24989 18.3264 0.320868 17.9929 0.458881C17.6594 0.596894 17.3564 0.79924 17.1011 1.05437L1.55437 16.6011ZM63.1381 67.7206L68.2206 62.6381C68.8583 61.009 69.0074 59.2294 68.6497 57.5169C68.292 55.8044 67.4431 54.2333 66.2066 52.9956L65.0096 51.7962L52.2962 64.512L53.4932 65.709C54.7314 66.9455 56.3031 67.7943 58.016 68.1516C59.729 68.5088 61.5089 68.3591 63.1381 67.7206ZM70.9804 71.5372L69.0234 69.5803C69.3939 69.2475 69.7466 68.8955 70.0803 68.5257L72.0372 70.4827C72.1771 70.6229 72.2555 70.8129 72.2553 71.0108C72.2551 71.2088 72.1762 71.3986 72.0361 71.5384C71.8959 71.6783 71.706 71.7567 71.508 71.7565C71.31 71.7563 71.1202 71.6774 70.9804 71.5372ZM25.4041 19.957L15.6904 10.2432L10.7456 15.1832L20.4594 24.897L25.4041 19.957Z" fill="white"/>
<path fill-rule="evenodd" clip-rule="evenodd" d="M19.1885 54.5156C20.456 53.6776 21.8726 53.0906 23.3613 52.7866V50.1741C22.7314 50.1741 22.1273 49.9239 21.6819 49.4785C21.2366 49.0331 20.9863 48.429 20.9863 47.7991C20.9863 47.1692 21.2366 46.5651 21.6819 46.1197C22.1273 45.6743 22.7314 45.4241 23.3613 45.4241H28.1113C28.7412 45.4241 29.3453 45.6743 29.7907 46.1197C30.2361 46.5651 30.4863 47.1692 30.4863 47.7991C30.4863 48.429 30.2361 49.0331 29.7907 49.4785C29.3453 49.9239 28.7412 50.1741 28.1113 50.1741V52.7866C29.6266 53.0953 31.0397 53.6891 32.2842 54.5156L34.2531 52.5491C33.8205 52.1011 33.5811 51.5012 33.5865 50.8785C33.5919 50.2558 33.8417 49.6601 34.282 49.2198C34.7224 48.7794 35.318 48.5296 35.9408 48.5242C36.5635 48.5188 37.1634 48.7582 37.6113 49.1908L40.9696 52.5491C41.1964 52.7682 41.3773 53.0302 41.5018 53.32C41.6263 53.6097 41.6918 53.9214 41.6945 54.2367C41.6973 54.5521 41.6372 54.8648 41.5178 55.1567C41.3984 55.4486 41.222 55.7138 40.999 55.9368C40.776 56.1598 40.5108 56.3361 40.219 56.4555C39.9271 56.5749 39.6143 56.635 39.299 56.6323C38.9836 56.6295 38.672 56.564 38.3822 56.4396C38.0925 56.3151 37.8304 56.1342 37.6113 55.9073L35.6448 57.8762C36.469 59.1207 37.0651 60.5338 37.3738 62.0491H39.9863C39.9863 61.4192 40.2365 60.8151 40.6819 60.3697C41.1273 59.9243 41.7314 59.6741 42.3613 59.6741C42.9912 59.6741 43.5953 59.9243 44.0407 60.3697C44.4861 60.8151 44.7363 61.4192 44.7363 62.0491V66.7991C44.7363 67.429 44.4861 68.0331 44.0407 68.4785C43.5953 68.9239 42.9912 69.1741 42.3613 69.1741C41.7314 69.1741 41.1273 68.9239 40.6819 68.4785C40.2365 68.0331 39.9863 67.429 39.9863 66.7991H37.3738C37.0698 68.2878 36.4828 69.7044 35.6448 70.9719L37.6113 72.9408C38.0593 72.5082 38.6592 72.2688 39.2819 72.2742C39.9046 72.2796 40.5003 72.5294 40.9406 72.9698C41.381 73.4101 41.6308 74.0058 41.6362 74.6285C41.6416 75.2512 41.4022 75.8511 40.9696 76.2991L37.6113 79.6573C37.3922 79.8842 37.1302 80.0651 36.8404 80.1896C36.5507 80.314 36.239 80.3796 35.9237 80.3823C35.6083 80.385 35.2956 80.3249 35.0037 80.2055C34.7118 80.0861 34.4466 79.9098 34.2236 79.6868C34.0006 79.4638 33.8243 79.1986 33.7049 78.9067C33.5855 78.6148 33.5254 78.3021 33.5281 77.9867C33.5308 77.6714 33.5964 77.3597 33.7208 77.07C33.8453 76.7802 34.0262 76.5182 34.2531 76.2991L32.2842 74.3326C31.0167 75.1706 29.6001 75.7575 28.1113 76.0616V78.6741C28.7412 78.6741 29.3453 78.9243 29.7907 79.3697C30.2361 79.8151 30.4863 80.4192 30.4863 81.0491C30.4863 81.679 30.2361 82.2831 29.7907 82.7285C29.3453 83.1739 28.7412 83.4241 28.1113 83.4241H23.3613C22.7314 83.4241 22.1273 83.1739 21.6819 82.7285C21.2366 82.2831 20.9863 81.679 20.9863 81.0491C20.9863 80.4192 21.2366 79.8151 21.6819 79.3697C22.1273 78.9243 22.7314 78.6741 23.3613 78.6741V76.0616C21.8726 75.7575 20.456 75.1706 19.1885 74.3326L17.2196 76.2991C17.4464 76.5182 17.6273 76.7802 17.7518 77.07C17.8763 77.3597 17.9418 77.6714 17.9445 77.9867C17.9473 78.3021 17.8872 78.6148 17.7678 78.9067C17.6484 79.1986 17.472 79.4638 17.249 79.6868C17.026 79.9098 16.7608 80.0861 16.469 80.2055C16.1771 80.3249 15.8644 80.385 15.549 80.3823C15.2337 80.3796 14.922 80.314 14.6322 80.1896C14.3425 80.0651 14.0804 79.8842 13.8613 79.6573L10.5031 76.2991C10.0705 75.8511 9.83106 75.2512 9.83648 74.6285C9.84189 74.0058 10.0917 73.4101 10.532 72.9698C10.9724 72.5294 11.568 72.2796 12.1907 72.2742C12.8135 72.2688 13.4134 72.5082 13.8613 72.9408L15.8278 70.9719C14.9898 69.7044 14.4029 68.2878 14.0988 66.7991H11.4863C11.4863 67.429 11.2361 68.0331 10.7907 68.4785C10.3453 68.9239 9.74122 69.1741 9.11133 69.1741C8.48144 69.1741 7.87735 68.9239 7.43195 68.4785C6.98655 68.0331 6.73633 67.429 6.73633 66.7991V62.0491C6.73633 61.4192 6.98655 60.8151 7.43195 60.3697C7.87735 59.9243 8.48144 59.6741 9.11133 59.6741C9.74122 59.6741 10.3453 59.9243 10.7907 60.3697C11.2361 60.8151 11.4863 61.4192 11.4863 62.0491H14.0988C14.4076 60.5338 15.0013 59.1207 15.8278 57.8762L13.8613 55.9073C13.6422 56.1342 13.3802 56.3151 13.0904 56.4396C12.8007 56.564 12.489 56.6295 12.1737 56.6323C11.8583 56.635 11.5456 56.5749 11.2537 56.4555C10.9618 56.3361 10.6966 56.1598 10.4736 55.9368C10.2506 55.7138 10.0743 55.4486 9.95488 55.1567C9.83546 54.8648 9.77537 54.5521 9.77811 54.2367C9.78085 53.9214 9.84637 53.6097 9.97084 53.32C10.0953 53.0302 10.2762 52.7682 10.5031 52.5491L12.1585 50.8913L12.1822 50.8676L12.206 50.8462L13.8613 49.1908C14.3093 48.7582 14.9092 48.5188 15.5319 48.5242C16.1546 48.5296 16.7503 48.7794 17.1906 49.2198C17.631 49.6601 17.8808 50.2558 17.8862 50.8785C17.8916 51.5012 17.6522 52.1011 17.2196 52.5491L19.1885 54.5156ZM18.6113 64.4241C18.6113 62.5344 19.362 60.7221 20.6982 59.3859C22.0344 58.0497 23.8467 57.2991 25.7363 57.2991C27.626 57.2991 29.4383 58.0497 30.7745 59.3859C32.1107 60.7221 32.8613 62.5344 32.8613 64.4241C32.8613 66.3137 32.1107 68.126 30.7745 69.4622C29.4383 70.7984 27.626 71.5491 25.7363 71.5491C23.8467 71.5491 22.0344 70.7984 20.6982 69.4622C19.362 68.126 18.6113 66.3137 18.6113 64.4241Z" fill="white"/>
</svg>
