<svg width="84" height="83" viewBox="0 0 84 83" fill="none" xmlns="http://www.w3.org/2000/svg">
<path d="M63.5057 0.761951C63.7466 0.520423 64.0328 0.328798 64.3479 0.19805C64.663 0.0673018 65.0008 0 65.3419 0C65.6831 0 66.0208 0.0673018 66.3359 0.19805C66.651 0.328798 66.9372 0.520423 67.1781 0.761951L82.7394 16.3232C83.2264 16.8102 83.5 17.4707 83.5 18.1595C83.5 18.8482 83.2264 19.5087 82.7394 19.9957C82.2524 20.4827 81.5919 20.7563 80.9032 20.7563C80.2145 20.7563 79.5539 20.4827 79.067 19.9957L77.0129 17.9364L67.7124 27.2369L77.5523 37.0716C78.0393 37.5586 78.3129 38.2191 78.3129 38.9078C78.3129 39.5965 78.0393 40.257 77.5523 40.744C77.0653 41.231 76.4048 41.5046 75.7161 41.5046C75.0274 41.5046 74.3669 41.231 73.8799 40.744L67.9355 34.7944L39.0952 63.6347C37.8906 64.8403 36.4602 65.7967 34.8857 66.4491C33.3112 67.1015 31.6236 67.4371 29.9193 67.4368H19.7318L4.93305 82.2408C4.44605 82.7278 3.78554 83.0014 3.09682 83.0014C2.4081 83.0014 1.74759 82.7278 1.26059 82.2408C0.773592 81.7538 0.5 81.0933 0.5 80.4045C0.5 79.7158 0.773592 79.0553 1.26059 78.5683L16.0645 63.7695V53.5769C16.0653 50.1392 17.431 46.8425 19.8615 44.4113L48.7017 15.5659L42.7573 9.6215C42.2703 9.1345 41.9967 8.47399 41.9967 7.78527C41.9967 7.09655 42.2703 6.43604 42.7573 5.94904C43.2443 5.46204 43.9048 5.18845 44.5935 5.18845C45.2823 5.18845 45.9428 5.46204 46.4298 5.94904L56.2645 15.789L65.565 6.4885L63.5057 4.43441C63.2642 4.19349 63.0725 3.90729 62.9418 3.5922C62.811 3.27711 62.7437 2.93932 62.7437 2.59818C62.7437 2.25704 62.811 1.91925 62.9418 1.60416C63.0725 1.28907 63.2642 1.00287 63.5057 0.761951ZM42 29.6074L37.8866 33.7207L41.2427 37.0716C41.7297 37.5586 42.0033 38.2191 42.0033 38.9078C42.0033 39.5965 41.7297 40.257 41.2427 40.744C40.7557 41.231 40.0952 41.5046 39.4065 41.5046C38.7177 41.5046 38.0572 41.231 37.5702 40.744L34.2194 37.388L30.106 41.5014L33.4621 44.8522C33.9491 45.3392 34.2226 45.9997 34.2226 46.6884C34.2226 47.3772 33.9491 48.0377 33.4621 48.5247C32.9751 49.0117 32.3145 49.2853 31.6258 49.2853C30.9371 49.2853 30.2766 49.0117 29.7896 48.5247L26.4387 45.1686L23.534 48.0734C22.81 48.7964 22.2358 49.6552 21.8442 50.6004C21.4525 51.5457 21.2512 52.5589 21.2516 53.5821V62.2497H29.9245C31.9873 62.2479 33.965 61.427 35.4228 59.9674L64.263 31.1272L52.3742 19.2332L45.6673 25.9401L49.0233 29.2909C49.5103 29.7779 49.7839 30.4385 49.7839 31.1272C49.7839 31.8159 49.5103 32.4764 49.0233 32.9634C48.5363 33.4504 47.8758 33.724 47.1871 33.724C46.4984 33.724 45.8379 33.4504 45.3509 32.9634L42 29.6074ZM73.3456 14.2691L69.2322 10.1558L59.9318 19.4562L64.0451 23.5696L73.3456 14.2691Z" fill="white"/>
</svg>
