<svg width="42" height="31" viewBox="0 0 42 31" fill="none" xmlns="http://www.w3.org/2000/svg">
<path opacity="0.9" d="M0.5 31V22.4728C0.5 19.9561 0.979007 17.3061 1.93702 14.5229C2.89503 11.7397 4.22727 9.07497 5.93373 6.52865C7.6402 3.98233 9.64604 1.80611 11.9513 0L18.5975 4.70773C16.7713 7.34288 15.2145 10.0965 13.9272 12.9685C12.6398 15.8405 11.9962 18.9642 11.9962 22.3395V31H0.5ZM23.4025 31V22.4728C23.4025 19.9561 23.8815 17.3061 24.8395 14.5229C25.7976 11.7397 27.1298 9.07497 28.8363 6.52865C30.5427 3.98233 32.5486 1.80611 34.8538 0L41.5 4.70773C39.6738 7.34288 38.117 10.0965 36.8297 12.9685C35.5424 15.8405 34.8987 18.9642 34.8987 22.3395V31H23.4025Z" fill="#EFEFEF"/>
</svg>
