<svg width="12" height="14" viewBox="0 0 12 14" fill="none" xmlns="http://www.w3.org/2000/svg">
<path d="M6.00039 0.575684C5.48169 0.575684 4.95529 0.652481 4.42539 0.785871C4.05159 0.88086 3.84579 1.24735 3.94379 1.6071C4.04249 1.96685 4.42329 2.18579 4.79709 2.09147C5.21569 1.9857 5.60769 1.92305 6.00039 1.92305C6.40499 1.92305 6.80819 1.9857 7.22539 2.09147C7.59919 2.18579 7.97999 1.96685 8.07869 1.6071C8.17669 1.24735 7.94919 0.88086 7.57539 0.785871C7.04619 0.652481 6.52959 0.575684 6.00039 0.575684ZM6.00039 2.59674C2.90779 2.59674 0.400391 5.00987 0.400391 7.98621C0.400391 10.9625 2.90779 13.3757 6.00039 13.3757C9.09299 13.3757 11.6004 10.9625 11.6004 7.98621C11.6004 5.00987 9.09299 2.59674 6.00039 2.59674ZM10.9004 2.59674C10.514 2.59674 10.2004 2.89855 10.2004 3.27042C10.2004 3.64229 10.514 3.9441 10.9004 3.9441C11.2868 3.9441 11.6004 3.64229 11.6004 3.27042C11.6004 2.89855 11.2868 2.59674 10.9004 2.59674ZM6.00039 5.29147C6.38679 5.29147 6.70039 5.59328 6.70039 5.96516V7.69113L7.90369 8.8492C8.17669 9.11261 8.17669 9.55454 7.90369 9.81795C7.62999 10.0807 7.17079 10.0807 6.89709 9.81795L5.49709 8.47059C5.36619 8.34393 5.30039 8.16474 5.30039 7.98621V5.96516C5.30039 5.59328 5.61399 5.29147 6.00039 5.29147Z" fill="currentColor" stroke="currentColor" stroke-width="0.002" stroke-linecap="round" stroke-linejoin="round"/>
</svg>
