<svg width="16" height="16" viewBox="0 0 16 16" fill="none" xmlns="http://www.w3.org/2000/svg">
<path d="M11.7473 7.16673C11.4607 7.16673 11.234 6.9334 11.234 6.6534C11.234 6.40673 10.9873 5.8934 10.574 5.44673C10.1673 5.0134 9.72065 4.76006 9.34732 4.76006C9.06065 4.76006 8.83398 4.52673 8.83398 4.24673C8.83398 3.96673 9.06732 3.7334 9.34732 3.7334C10.014 3.7334 10.714 4.0934 11.3273 4.74007C11.9007 5.34673 12.2673 6.10007 12.2673 6.64673C12.2673 6.9334 12.034 7.16673 11.7473 7.16673Z" fill="curentColor"/>
<path d="M14.1532 7.16658C13.8665 7.16658 13.6398 6.93325 13.6398 6.65325C13.6398 4.28658 11.7132 2.36659 9.35318 2.36659C9.06651 2.36659 8.83984 2.13325 8.83984 1.85325C8.83984 1.57325 9.06651 1.33325 9.34651 1.33325C12.2798 1.33325 14.6665 3.71992 14.6665 6.65325C14.6665 6.93325 14.4332 7.16658 14.1532 7.16658Z" fill="curentColor"/>
<path d="M7.36732 9.96659L6.13398 11.1999C5.87398 11.4599 5.46065 11.4599 5.19398 11.2066C5.12065 11.1333 5.04732 11.0666 4.97398 10.9933C4.28732 10.2999 3.66732 9.57325 3.11398 8.81325C2.56732 8.05325 2.12732 7.29325 1.80732 6.53992C1.49398 5.77992 1.33398 5.05325 1.33398 4.35992C1.33398 3.90659 1.41398 3.47325 1.57398 3.07325C1.73398 2.66659 1.98732 2.29325 2.34065 1.95992C2.76732 1.53992 3.23398 1.33325 3.72732 1.33325C3.91398 1.33325 4.10065 1.37325 4.26732 1.45325C4.44065 1.53325 4.59398 1.65325 4.71398 1.82659L6.26065 4.00659C6.38065 4.17325 6.46732 4.32659 6.52732 4.47325C6.58732 4.61325 6.62065 4.75325 6.62065 4.87992C6.62065 5.03992 6.57398 5.19992 6.48065 5.35325C6.39398 5.50659 6.26732 5.66659 6.10732 5.82659L5.60065 6.35325C5.52732 6.42659 5.49398 6.51325 5.49398 6.61992C5.49398 6.67325 5.50065 6.71992 5.51398 6.77325C5.53398 6.82659 5.55398 6.86659 5.56732 6.90659C5.68732 7.12659 5.89398 7.41325 6.18732 7.75992C6.48732 8.10659 6.80732 8.45992 7.15398 8.81325C7.22065 8.87992 7.29398 8.94659 7.36065 9.01325C7.62732 9.27325 7.63398 9.69992 7.36732 9.96659Z" fill="curentColor"/>
<path d="M14.6471 12.2201C14.6471 12.4068 14.6137 12.6001 14.5471 12.7868C14.5271 12.8401 14.5071 12.8934 14.4804 12.9468C14.3671 13.1868 14.2204 13.4134 14.0271 13.6268C13.7004 13.9868 13.3404 14.2468 12.9337 14.4134C12.9271 14.4134 12.9204 14.4201 12.9137 14.4201C12.5204 14.5801 12.0937 14.6668 11.6337 14.6668C10.9537 14.6668 10.2271 14.5068 9.46039 14.1801C8.69372 13.8534 7.92706 13.4134 7.16706 12.8601C6.90706 12.6668 6.64706 12.4734 6.40039 12.2668L8.58039 10.0868C8.76706 10.2268 8.93372 10.3334 9.07372 10.4068C9.10706 10.4201 9.14706 10.4401 9.19372 10.4601C9.24706 10.4801 9.30039 10.4868 9.36039 10.4868C9.47372 10.4868 9.56039 10.4468 9.63372 10.3734L10.1404 9.87344C10.3071 9.70677 10.4671 9.58011 10.6204 9.50011C10.7737 9.40677 10.9271 9.36011 11.0937 9.36011C11.2204 9.36011 11.3537 9.38677 11.5004 9.44677C11.6471 9.50677 11.8004 9.59344 11.9671 9.70677L14.1737 11.2734C14.3471 11.3934 14.4671 11.5334 14.5404 11.7001C14.6071 11.8668 14.6471 12.0334 14.6471 12.2201Z" fill="curentColor"/>
</svg>
