<svg width="69" height="53" viewBox="0 0 69 53" fill="none" xmlns="http://www.w3.org/2000/svg">
<path d="M42.5459 0.501138C41.198 0.51101 39.8599 0.577644 38.4464 0.96264C36.9067 1.38738 35.4456 2.06513 34.1211 2.96906C32.2609 1.85849 30.4589 0.945363 28.7321 0.730655C26.5877 0.461651 24.5963 0.607259 22.2819 0.656618C19.5376 0.71338 17.7477 2.13737 14.8431 3.27755C11.941 4.41279 8.20343 5.51348 2.92857 5.51348H0.5V29.2672L1.86729 29.9607L6.34314 32.1991L22.2819 50.2445L22.3571 50.321C24.1786 52.1522 26.6363 52.6063 28.8074 52.4804C30.981 52.357 33.021 51.7104 34.6506 50.7085C38.2376 48.5096 48.0077 41.6068 48.0077 41.6068L48.236 41.4513L48.389 41.2983C49.545 40.131 50.1254 38.707 50.514 37.2114L59.847 32.4286L66.8291 30.0397L68.5 29.4967V5.51348H66.0714C61.9891 5.54185 57.941 4.75533 54.1569 3.19857C51.2523 2.04606 49.4891 0.636874 46.7157 0.577644C45.2343 0.548029 43.8913 0.491267 42.5459 0.501138ZM42.6187 5.43698C43.7116 5.4271 44.9744 5.48633 46.5676 5.51348C46.8226 5.52335 49.1564 6.5352 52.4107 7.82839C55.1623 8.92661 58.9849 9.90144 63.6429 10.2173V25.9503L58.0256 27.8802H57.875L57.722 27.9543L50.3634 31.7351C49.9728 30.5898 49.3526 29.5394 48.542 28.6502L48.389 28.4182L38.0676 15.5406L36.5497 13.6107L34.6506 15.1532L28.125 20.553C25.9344 22.0954 24.1591 21.6512 22.3571 20.785C21.835 20.5332 21.8641 20.4567 21.4464 20.168L32.528 10.8343L32.6786 10.6813C35.9693 7.36442 37.9923 6.21684 39.736 5.74546C40.6103 5.50361 41.5283 5.44685 42.6187 5.43698ZM25.6989 5.51348C26.5092 5.48244 27.3206 5.50801 28.1274 5.58999C28.7637 5.66649 29.485 6.21684 30.1019 6.43895C29.8541 6.67093 29.6744 6.8042 29.417 7.05593L29.2664 7.21141L15.9846 18.3911L13.9349 20.089L15.7563 22.0165C15.7563 22.0165 17.5121 23.9464 20.2346 25.2568C22.957 26.5673 27.1609 27.3101 30.9349 24.6398L31.0879 24.4844L35.792 20.553L44.7486 31.7351L44.8239 31.8906L44.8991 31.9646C46.502 33.5762 46.4656 36.1107 44.8991 37.7519C44.8797 37.7692 44.9186 37.8087 44.8991 37.8259C44.8797 37.8383 44.5591 38.0308 44.5203 38.0604L41.3316 33.6626L37.3851 36.5944L40.4986 40.8343C39.2357 41.703 38.6674 42.1571 37.3099 43.0727L34.0483 38.5984L30.0994 41.5303L33.2129 45.7702C32.936 45.9429 32.3677 46.3304 32.1491 46.4661C31.3817 46.9375 29.9003 47.4681 28.5816 47.5446C27.3406 47.6137 26.391 47.3225 25.9271 46.9276L25.8519 46.8511L9.60957 28.5737L9.306 28.1862L5.35714 26.1823V10.2173C9.99571 9.90884 13.8474 8.9735 16.5893 7.90489C19.8339 6.64132 22.1507 5.59986 22.4324 5.58999L25.6989 5.51348Z" fill="currentColor"/>
</svg>
