<svg width="71" height="73" viewBox="0 0 71 73" fill="none" xmlns="http://www.w3.org/2000/svg">
<path fill-rule="evenodd" clip-rule="evenodd" d="M18.6818 31.7152C22.2984 31.7152 25.7669 33.1195 28.3242 35.6192C30.8815 38.1189 32.3182 41.5092 32.3182 45.0443C32.3182 49.5969 29.7788 53.3232 27.103 55.9964C25.7662 57.3176 24.3075 58.5153 22.7455 59.5745L22.1 60.004L21.797 60.201L21.2258 60.5564L20.7167 60.86L20.0864 61.2184C19.6585 61.4571 19.1744 61.5827 18.6818 61.5827C18.1892 61.5827 17.7051 61.4571 17.2773 61.2184L16.647 60.86L15.8591 60.3861L15.5682 60.201L14.947 59.7967C13.2619 58.6822 11.6923 57.4094 10.2606 55.9964C7.58485 53.3217 5.04545 49.5969 5.04545 45.0443C5.04545 41.5092 6.48214 38.1189 9.03945 35.6192C11.5968 33.1195 15.0652 31.7152 18.6818 31.7152ZM18.6818 34.6772C15.8689 34.6772 13.1712 35.7695 11.1822 37.7137C9.19318 39.6579 8.07576 42.2948 8.07576 45.0443C8.07576 48.4832 10.003 51.5015 12.4258 53.9245C13.4675 54.9552 14.5934 55.9013 15.7924 56.7532L16.4864 57.236C16.7106 57.389 16.9263 57.5312 17.1333 57.6625L17.7242 58.0328L18.2439 58.3423L18.6818 58.5926L19.3712 58.1942L19.9273 57.8536C20.2232 57.6699 20.5399 57.4641 20.8773 57.236L21.5712 56.7532C22.7702 55.9013 23.8962 54.9552 24.9379 53.9245C27.3606 51.503 29.2879 48.4832 29.2879 45.0443C29.2879 42.2948 28.1705 39.6579 26.1814 37.7137C24.1924 35.7695 21.4947 34.6772 18.6818 34.6772ZM18.6818 39.1203C20.2892 39.1203 21.8307 39.7444 22.9673 40.8554C24.1039 41.9663 24.7424 43.4731 24.7424 45.0443C24.7424 46.6155 24.1039 48.1223 22.9673 49.2332C21.8307 50.3442 20.2892 50.9684 18.6818 50.9684C17.0744 50.9684 15.5329 50.3442 14.3963 49.2332C13.2597 48.1223 12.6212 46.6155 12.6212 45.0443C12.6212 43.4731 13.2597 41.9663 14.3963 40.8554C15.5329 39.7444 17.0744 39.1203 18.6818 39.1203ZM18.6818 42.0823C17.8781 42.0823 17.1074 42.3943 16.5391 42.9498C15.9708 43.5053 15.6515 44.2587 15.6515 45.0443C15.6515 45.8299 15.9708 46.5833 16.5391 47.1388C17.1074 47.6943 17.8781 48.0063 18.6818 48.0063C19.4855 48.0063 20.2563 47.6943 20.8246 47.1388C21.3929 46.5833 21.7121 45.8299 21.7121 45.0443C21.7121 44.2587 21.3929 43.5053 20.8246 42.9498C20.2563 42.3943 19.4855 42.0823 18.6818 42.0823Z" fill="currentColor"/>
<path fill-rule="evenodd" clip-rule="evenodd" d="M38.6818 3.46203C42.2984 3.46203 45.7669 4.86634 48.3242 7.36603C50.8815 9.86573 52.3182 13.256 52.3182 16.7911C52.3182 21.3438 49.7788 25.07 47.103 27.7432C45.7662 29.0644 44.3075 30.2622 42.7455 31.3214L42.1 31.7508L41.797 31.9478L41.2258 32.3033L40.7167 32.6069L40.0864 32.9653C39.6585 33.204 39.1744 33.3295 38.6818 33.3295C38.1892 33.3295 37.7051 33.204 37.2773 32.9653L36.647 32.6069L35.8591 32.1329L35.5682 31.9478L34.947 31.5435C33.2619 30.4291 31.6923 29.1563 30.2606 27.7432C27.5849 25.0685 25.0455 21.3438 25.0455 16.7911C25.0455 13.256 26.4821 9.86573 29.0395 7.36603C31.5968 4.86634 35.0652 3.46203 38.6818 3.46203ZM38.6818 6.42405C35.8689 6.42405 33.1712 7.51629 31.1822 9.4605C29.1932 11.4047 28.0758 14.0416 28.0758 16.7911C28.0758 20.2301 30.003 23.2484 32.4258 25.6713C33.4675 26.7021 34.5934 27.6481 35.7924 28.5L36.4864 28.9828C36.7106 29.1359 36.9263 29.2781 37.1333 29.4094L37.7242 29.7796L38.2439 30.0891L38.6818 30.3394L39.3712 29.941L39.9273 29.6004C40.2232 29.4168 40.5399 29.2109 40.8773 28.9828L41.5712 28.5C42.7702 27.6481 43.8962 26.7021 44.9379 25.6713C47.3606 23.2498 49.2879 20.2301 49.2879 16.7911C49.2879 14.0416 48.1705 11.4047 46.1814 9.4605C44.1924 7.51629 41.4947 6.42405 38.6818 6.42405ZM38.6818 10.8671C40.2892 10.8671 41.8307 11.4912 42.9673 12.6022C44.1039 13.7132 44.7424 15.22 44.7424 16.7911C44.7424 18.3623 44.1039 19.8691 42.9673 20.9801C41.8307 22.0911 40.2892 22.7152 38.6818 22.7152C37.0744 22.7152 35.5329 22.0911 34.3963 20.9801C33.2597 19.8691 32.6212 18.3623 32.6212 16.7911C32.6212 15.22 33.2597 13.7132 34.3963 12.6022C35.5329 11.4912 37.0744 10.8671 38.6818 10.8671ZM38.6818 13.8291C37.8781 13.8291 37.1074 14.1412 36.5391 14.6967C35.9708 15.2522 35.6515 16.0056 35.6515 16.7911C35.6515 17.5767 35.9708 18.3301 36.5391 18.8856C37.1074 19.4411 37.8781 19.7532 38.6818 19.7532C39.4855 19.7532 40.2563 19.4411 40.8246 18.8856C41.3929 18.3301 41.7121 17.5767 41.7121 16.7911C41.7121 16.0056 41.3929 15.2522 40.8246 14.6967C40.2563 14.1412 39.4855 13.8291 38.6818 13.8291Z" fill="currentColor"/>
<path fill-rule="evenodd" clip-rule="evenodd" d="M52.3182 39.0811C55.9348 39.0811 59.4032 40.5214 61.9605 43.0852C64.5179 45.649 65.9545 49.1262 65.9545 52.752C65.9545 57.4213 63.4152 61.2431 60.7394 63.9849C59.4025 65.3399 57.9438 66.5684 56.3818 67.6548L55.7364 68.0953L55.4333 68.2973L54.8621 68.6619L54.353 68.9733L53.7227 69.3408C53.2949 69.5857 52.8108 69.7144 52.3182 69.7144C51.8256 69.7144 51.3415 69.5857 50.9136 69.3408L50.2833 68.9733L49.4955 68.4872L49.2045 68.2973L48.5833 67.8826C46.8982 66.7396 45.3286 65.4342 43.897 63.9849C41.2212 61.2416 38.6818 57.4213 38.6818 52.752C38.6818 49.1262 40.1185 45.649 42.6758 43.0852C45.2331 40.5214 48.7016 39.0811 52.3182 39.0811ZM52.3182 42.1191C49.5053 42.1191 46.8076 43.2393 44.8186 45.2334C42.8295 47.2274 41.7121 49.932 41.7121 52.752C41.7121 56.2791 43.6394 59.3748 46.0621 61.8598C47.1038 62.917 48.2298 63.8873 49.4288 64.7611L50.1227 65.2563C50.347 65.4132 50.5626 65.5591 50.7697 65.6938L51.3606 66.0735L51.8803 66.391L52.3182 66.6477L53.0076 66.2391L53.5636 65.8897C53.8596 65.7013 54.1763 65.4902 54.5136 65.2563L55.2076 64.7611C56.4066 63.8873 57.5325 62.917 58.5742 61.8598C60.997 59.3763 62.9242 56.2791 62.9242 52.752C62.9242 49.932 61.8068 47.2274 59.8178 45.2334C57.8288 43.2393 55.1311 42.1191 52.3182 42.1191ZM52.3182 46.676C53.9256 46.676 55.4671 47.3162 56.6037 48.4556C57.7403 49.5951 58.3788 51.1405 58.3788 52.752C58.3788 54.3634 57.7403 55.9089 56.6037 57.0483C55.4671 58.1878 53.9256 58.8279 52.3182 58.8279C50.7108 58.8279 49.1693 58.1878 48.0327 57.0483C46.8961 55.9089 46.2576 54.3634 46.2576 52.752C46.2576 51.1405 46.8961 49.5951 48.0327 48.4556C49.1693 47.3162 50.7108 46.676 52.3182 46.676ZM52.3182 49.714C51.5145 49.714 50.7437 50.0341 50.1754 50.6038C49.6071 51.1735 49.2879 51.9463 49.2879 52.752C49.2879 53.5577 49.6071 54.3304 50.1754 54.9001C50.7437 55.4699 51.5145 55.79 52.3182 55.79C53.1219 55.79 53.8926 55.4699 54.4609 54.9001C55.0292 54.3304 55.3485 53.5577 55.3485 52.752C55.3485 51.9463 55.0292 51.1735 54.4609 50.6038C53.8926 50.0341 53.1219 49.714 52.3182 49.714Z" fill="currentColor"/>
</svg>
