<svg width="65" height="65" viewBox="0 0 65 65" fill="none" xmlns="http://www.w3.org/2000/svg">
<path d="M50.8333 49.1667H14.1667M50.8333 35.8333H14.1667M2.5 22.5H62.5M18.5 2.5H46.5C52.1005 2.5 54.9008 2.5 57.0399 3.58993C58.9215 4.54867 60.4513 6.07847 61.4101 7.96009C62.5 10.0992 62.5 12.8995 62.5 18.5V46.5C62.5 52.1005 62.5 54.9008 61.4101 57.0399C60.4513 58.9215 58.9215 60.4513 57.0399 61.4101C54.9008 62.5 52.1005 62.5 46.5 62.5H18.5C12.8995 62.5 10.0992 62.5 7.96009 61.4101C6.07847 60.4513 4.54867 58.9215 3.58993 57.0399C2.5 54.9008 2.5 52.1005 2.5 46.5V18.5C2.5 12.8995 2.5 10.0992 3.58993 7.96009C4.54867 6.07847 6.07847 4.54867 7.96009 3.58993C10.0992 2.5 12.8995 2.5 18.5 2.5Z" stroke="currentColor" stroke-width="4" stroke-linecap="round" stroke-linejoin="round"/>
</svg>
